<svg id="Logo_-_H_-_White" data-name="Logo - H - White" xmlns="http://www.w3.org/2000/svg" width="107.218" height="40" viewBox="0 0 107.218 40">
  <path id="Path_8680" data-name="Path 8680" d="M17.012,14.4A12.231,12.231,0,0,0,22.9,8.534a15.975,15.975,0,0,0,.81-8.05,5.945,5.945,0,0,1-3.7.541c-2.377-.3-3-1.026-3-1.026s-.621.73-3,1.026a5.913,5.913,0,0,1-3.7-.541,15.975,15.975,0,0,0,.81,8.05,12.231,12.231,0,0,0,5.889,5.87Zm-2.608.685A12.231,12.231,0,0,0,8.534,9.2a15.975,15.975,0,0,0-8.05-.81,5.945,5.945,0,0,1,.541,3.7c-.3,2.377-1.026,3-1.026,3s.73.621,1.026,3a5.913,5.913,0,0,1-.541,3.7,15.975,15.975,0,0,0,8.05-.81,12.214,12.214,0,0,0,5.87-5.889Zm2.608.685a12.231,12.231,0,0,0-5.889,5.87,15.975,15.975,0,0,0-.81,8.05,5.945,5.945,0,0,1,3.7-.541c2.377.3,3,1.026,3,1.026s.621-.73,3-1.026a5.945,5.945,0,0,1,3.7.541,15.975,15.975,0,0,0-.81-8.05,12.231,12.231,0,0,0-5.889-5.87Zm17.1-.685s-.73-.621-1.026-3a5.913,5.913,0,0,1,.541-3.7,15.975,15.975,0,0,0-8.05.81,12.231,12.231,0,0,0-5.87,5.889,12.231,12.231,0,0,0,5.87,5.889,15.975,15.975,0,0,0,8.05.81,5.945,5.945,0,0,1-.541-3.7c.3-2.377,1.026-3,1.026-3Z" transform="translate(0 0)" fill="#fff"/>
  <path id="Path_8681" data-name="Path 8681" d="M101.176,94.729c.064,0,.095.038.095.117s-.091.2-.272.348a2.121,2.121,0,0,1-.624.36,1.814,1.814,0,0,1-.651.132,1.235,1.235,0,0,1-.787-.284,1,1,0,0,1-.356-.825,2.853,2.853,0,0,1,.852-1.923,2.332,2.332,0,0,1,1.639-.935.63.63,0,0,1,.473.182.59.59,0,0,1,.178.424,1.7,1.7,0,0,1-.026.352.352.352,0,0,1-.155.22.393.393,0,0,1-.208.087.125.125,0,0,1-.1-.049.205.205,0,0,1-.042-.132,1.449,1.449,0,0,1,.042-.235,1.359,1.359,0,0,0,.042-.261q0-.25-.216-.25a1.482,1.482,0,0,0-.833.386,3.39,3.39,0,0,0-.844.98,2.213,2.213,0,0,0-.348,1.094.8.8,0,0,0,.2.556.722.722,0,0,0,.568.22,1.575,1.575,0,0,0,.515-.106,2.335,2.335,0,0,0,.556-.284,1.3,1.3,0,0,1,.3-.174Z" transform="translate(-61.271 -57.007)" fill="#fff"/>
  <path id="Path_8682" data-name="Path 8682" d="M109.148,96.367a3.075,3.075,0,0,1-.674.689,1.128,1.128,0,0,1-.613.231.417.417,0,0,1-.325-.159.606.606,0,0,1-.136-.409,2.329,2.329,0,0,1,.571-1.381,1.542,1.542,0,0,1,1.139-.738.331.331,0,0,1,.307.235c.023.053.053.079.1.079.129,0,.2.049.2.151a1.311,1.311,0,0,1-.023.208,6.724,6.724,0,0,0-.132,1.014c0,.394.076.628.223.708a.165.165,0,0,1,.106.144.2.2,0,0,1-.106.151.325.325,0,0,1-.2.076c-.125,0-.227-.087-.31-.257A1.855,1.855,0,0,1,109.148,96.367ZM109,95q-.324,0-.749.6a1.889,1.889,0,0,0-.428,1c0,.185.061.28.185.28.178,0,.428-.182.742-.541a1.574,1.574,0,0,0,.477-1C109.228,95.111,109.152,95,109,95Z" transform="translate(-66.754 -58.798)" fill="#fff"/>
  <path id="Path_8683" data-name="Path 8683" d="M116.067,96.406c.015-.03.034-.068.057-.121a4.064,4.064,0,0,1,.307-.6,3.528,3.528,0,0,1,.307-.413,1.712,1.712,0,0,1,.307-.3.969.969,0,0,1,.25-.144.658.658,0,0,1,.216-.042.483.483,0,0,1,.348.129.4.4,0,0,1,.132.3.209.209,0,0,1-.049.136.166.166,0,0,1-.144.061.257.257,0,0,1-.189-.091.249.249,0,0,0-.182-.091c-.17,0-.4.2-.7.613a2.888,2.888,0,0,0-.545,1.355.424.424,0,0,1-.091.25.275.275,0,0,1-.193.061c-.083,0-.136-.061-.174-.178a2.4,2.4,0,0,1-.053-.6c0-.076,0-.246.011-.5.011-.307.03-.556.057-.742q.006-.045.023-.216a1.427,1.427,0,0,1,.042-.261.293.293,0,0,1,.106-.136.273.273,0,0,1,.17-.064.164.164,0,0,1,.136.057.193.193,0,0,1,.045.121,1.016,1.016,0,0,1-.049.269,1.635,1.635,0,0,0-.064.265.971.971,0,0,1-.027.174,4.622,4.622,0,0,0-.049.553v.155h0Z" transform="translate(-71.893 -58.916)" fill="#fff"/>
  <path id="Path_8684" data-name="Path 8684" d="M124.165,96.341c0,.167-.148.367-.439.6a1.448,1.448,0,0,1-.908.352.776.776,0,0,1-.606-.231.914.914,0,0,1-.212-.647,2.163,2.163,0,0,1,.469-1.325,1.309,1.309,0,0,1,1.029-.628.4.4,0,0,1,.3.121.4.4,0,0,1,.117.288.99.99,0,0,1-.367.719,4.669,4.669,0,0,1-.984.674.2.2,0,0,0-.125.17.447.447,0,0,0,.117.325.468.468,0,0,0,.348.121,1.529,1.529,0,0,0,1.071-.579c.053-.053.095-.079.121-.079C124.138,96.22,124.165,96.261,124.165,96.341Zm-1.7-.378q1.033-.613,1.033-.988c0-.1-.045-.148-.132-.148-.151,0-.318.11-.507.329A1.916,1.916,0,0,0,122.469,95.962Z" transform="translate(-75.828 -58.711)" fill="#fff"/>
  <path id="Path_8685" data-name="Path 8685" d="M129.165,100.82a.94.94,0,0,0,.583-.318.574.574,0,0,0,.061-.647.145.145,0,0,1-.03-.091.274.274,0,0,1,.034-.106q.034-.068.068-.068a.547.547,0,0,1,.163.038.373.373,0,0,1,.129.064,1.11,1.11,0,0,1,.064.182.947.947,0,0,1,.045.265,1.2,1.2,0,0,1-.091.257.8.8,0,0,1-.25.337.756.756,0,0,1-.3.148.867.867,0,0,0-.106.026.843.843,0,0,1-.314.087c-.049,0-.072-.038-.072-.114a.09.09,0,0,1,.015-.061Z" transform="translate(-80.272 -61.899)" fill="#fff"/>
  <path id="Path_8686" data-name="Path 8686" d="M140.318,96.367a3.075,3.075,0,0,1-.674.689,1.128,1.128,0,0,1-.613.231.417.417,0,0,1-.325-.159.606.606,0,0,1-.136-.409,2.306,2.306,0,0,1,.571-1.381,1.542,1.542,0,0,1,1.139-.738.331.331,0,0,1,.307.235c.023.053.053.079.1.079.129,0,.2.049.2.151a1.312,1.312,0,0,1-.023.208,6.722,6.722,0,0,0-.132,1.014c0,.394.076.628.223.708a.165.165,0,0,1,.106.144.2.2,0,0,1-.106.151.325.325,0,0,1-.2.076c-.125,0-.227-.087-.31-.257a1.854,1.854,0,0,1-.121-.742ZM140.171,95q-.324,0-.749.6a1.889,1.889,0,0,0-.428,1c0,.185.061.28.185.28.178,0,.428-.182.742-.541a1.574,1.574,0,0,0,.477-1C140.4,95.111,140.322,95,140.171,95Z" transform="translate(-86.127 -58.798)" fill="#fff"/>
  <path id="Path_8687" data-name="Path 8687" d="M147.372,96.479c0-.106-.129-.227-.39-.36a3.819,3.819,0,0,1-.67-.4.445.445,0,0,1-.174-.341.948.948,0,0,1,.488-.806,1.594,1.594,0,0,1,.795-.318.48.48,0,0,1,.288.068.277.277,0,0,1,.091.235.165.165,0,0,1-.064.129.188.188,0,0,1-.1.053.292.292,0,0,1-.106-.038.37.37,0,0,0-.1-.034,1.585,1.585,0,0,0-.5.178c-.25.117-.375.254-.375.4a.319.319,0,0,0,.132.246,2.379,2.379,0,0,0,.473.272,1.8,1.8,0,0,1,.439.28.455.455,0,0,1,.163.352c0,.25-.17.443-.515.583a2.607,2.607,0,0,1-.984.212c-.265,0-.394-.091-.394-.269a.148.148,0,0,1,.087-.136.4.4,0,0,1,.178-.045.821.821,0,0,1,.14.023.775.775,0,0,0,.132.023,2.041,2.041,0,0,0,.579-.091.557.557,0,0,0,.386-.212Z" transform="translate(-90.664 -58.58)" fill="#fff"/>
  <path id="Path_8688" data-name="Path 8688" d="M159.161,96.371a3.3,3.3,0,0,1-.64.81.954.954,0,0,1-.606.288.472.472,0,0,1-.329-.189.86.86,0,0,1-.167-.579,4.377,4.377,0,0,1,.155-.942,3.523,3.523,0,0,0,.129-.73.232.232,0,0,1,.223-.148.2.2,0,0,1,.163.072.228.228,0,0,1,.061.151,1.5,1.5,0,0,1-.121.484,3.106,3.106,0,0,0-.227,1.052c0,.265.061.4.185.4.159,0,.36-.132.6-.4a3.415,3.415,0,0,0,.628-1.12,1.7,1.7,0,0,1,.167-.375.208.208,0,0,1,.174-.087c.11,0,.167.072.167.22a1.121,1.121,0,0,1-.045.178,3.8,3.8,0,0,0-.148,1.01,1.017,1.017,0,0,0,.189.738c.064.061.1.11.1.148s-.034.087-.1.125a.36.36,0,0,1-.178.057c-.114,0-.2-.083-.276-.254a2.1,2.1,0,0,1-.106-.749v-.159Z" transform="translate(-97.843 -58.972)" fill="#fff"/>
  <path id="Path_8689" data-name="Path 8689" d="M167.041,95.7a.409.409,0,0,0-.276.167,4.5,4.5,0,0,0-.458.742,4.754,4.754,0,0,1-.522.882.326.326,0,0,1-.2.106c-.193,0-.288-.091-.288-.276a1.926,1.926,0,0,1,.038-.333,8.551,8.551,0,0,0,.132-1.552.369.369,0,0,1,.079-.2c.053-.076.1-.114.151-.114a.208.208,0,0,1,.182.079.635.635,0,0,1,.053.314,6.983,6.983,0,0,1-.148,1.014,2.181,2.181,0,0,0-.049.322c0,.026.008.038.019.038a2.961,2.961,0,0,0,.341-.583,3.874,3.874,0,0,1,.534-.833.693.693,0,0,1,.5-.242.415.415,0,0,1,.356.2,1.744,1.744,0,0,1,.2.73,4.156,4.156,0,0,0,.125.749c.038.1.095.148.174.148A.5.5,0,0,0,168.18,97a.06.06,0,0,1,.03-.011c.068,0,.106.042.106.121a.324.324,0,0,1-.144.227.527.527,0,0,1-.348.121.378.378,0,0,1-.322-.163,2.322,2.322,0,0,1-.178-.878C167.283,95.945,167.189,95.7,167.041,95.7Z" transform="translate(-102.741 -59.121)" fill="#fff"/>
  <path id="Path_8690" data-name="Path 8690" d="M174.8,94.466a1.958,1.958,0,0,0,.053.416.306.306,0,0,1,.011.072q0,.045-.079.114a.257.257,0,0,1-.17.068c-.159,0-.238-.144-.238-.435a8.469,8.469,0,0,1,.185-1.419,3.658,3.658,0,0,0,.064-.416.555.555,0,0,1,.057-.261.177.177,0,0,1,.159-.11.292.292,0,0,1,.2.061.169.169,0,0,1,.072.132.74.74,0,0,1-.034.193c-.121.428-.2.738-.227.923A3.4,3.4,0,0,0,174.8,94.466Zm.318-2.725c-.034,0-.061-.038-.079-.11-.008-.023-.015-.049-.026-.076a.7.7,0,0,1-.064-.276.265.265,0,0,1,.117-.2.377.377,0,0,1,.257-.1.312.312,0,0,1,.159.057c.057.038.087.072.087.106a1.024,1.024,0,0,1-.061.272.418.418,0,0,1-.189.261.556.556,0,0,1-.2.064Z" transform="translate(-108.384 -56.547)" fill="#fff"/>
  <path id="Path_8691" data-name="Path 8691" d="M179.558,96.282a.245.245,0,0,0-.064.053,2.936,2.936,0,0,1-.651.568,1.132,1.132,0,0,1-.59.193.423.423,0,0,1-.36-.189.8.8,0,0,1-.132-.481,2.212,2.212,0,0,1,.609-1.389,1.672,1.672,0,0,1,1.23-.727c.151,0,.25.087.291.265a.112.112,0,0,0,.095.091q.227.051.227.25a3.347,3.347,0,0,1-.114.6c-.053.212-.136.613-.246,1.2a9.29,9.29,0,0,0-.178,1.306c-.008.189-.011.318-.015.382a.2.2,0,0,1-.083.159.308.308,0,0,1-.185.057.184.184,0,0,1-.159-.079.327.327,0,0,1-.057-.2c0-.049.027-.223.079-.518s.11-.575.167-.84c.068-.322.114-.556.136-.7Zm.189-1.169c0-.254-.1-.382-.291-.382-.238,0-.511.193-.825.583a1.789,1.789,0,0,0-.469,1.071c0,.2.064.3.2.3a1.367,1.367,0,0,0,.878-.549A1.545,1.545,0,0,0,179.747,95.112Z" transform="translate(-110.485 -58.617)" fill="#fff"/>
  <path id="Path_8692" data-name="Path 8692" d="M187.331,96.371a3.3,3.3,0,0,1-.64.81.954.954,0,0,1-.606.288.472.472,0,0,1-.329-.189.86.86,0,0,1-.167-.579,4.149,4.149,0,0,1,.155-.942,3.524,3.524,0,0,0,.129-.73.232.232,0,0,1,.223-.148.2.2,0,0,1,.163.072.228.228,0,0,1,.061.151,1.5,1.5,0,0,1-.121.484,3.107,3.107,0,0,0-.227,1.052c0,.265.061.4.185.4.159,0,.36-.132.6-.4a3.416,3.416,0,0,0,.628-1.12,1.7,1.7,0,0,1,.167-.375.208.208,0,0,1,.174-.087c.11,0,.167.072.167.22a1.121,1.121,0,0,1-.045.178,3.794,3.794,0,0,0-.148,1.01,1.017,1.017,0,0,0,.189.738c.064.061.1.11.1.148s-.034.087-.1.125a.36.36,0,0,1-.178.057c-.114,0-.2-.083-.276-.254a2.1,2.1,0,0,1-.106-.749v-.159Z" transform="translate(-115.351 -58.972)" fill="#fff"/>
  <path id="Path_8693" data-name="Path 8693" d="M195.645,96.341c0,.167-.148.367-.439.6a1.449,1.449,0,0,1-.908.352.776.776,0,0,1-.606-.231.914.914,0,0,1-.212-.647,2.163,2.163,0,0,1,.469-1.325,1.309,1.309,0,0,1,1.029-.628.4.4,0,0,1,.3.121.4.4,0,0,1,.117.288.99.99,0,0,1-.367.719,4.669,4.669,0,0,1-.984.674.2.2,0,0,0-.125.17.447.447,0,0,0,.117.325.468.468,0,0,0,.348.121,1.529,1.529,0,0,0,1.071-.579c.053-.053.095-.079.121-.079.042,0,.068.042.068.121Zm-1.692-.378q1.033-.613,1.033-.988c0-.1-.045-.148-.132-.148-.151,0-.318.11-.507.329A1.916,1.916,0,0,0,193.953,95.962Z" transform="translate(-120.255 -58.711)" fill="#fff"/>
  <path id="Path_8694" data-name="Path 8694" d="M207.3,96.367a3.076,3.076,0,0,1-.674.689,1.128,1.128,0,0,1-.613.231.417.417,0,0,1-.325-.159.606.606,0,0,1-.136-.409,2.306,2.306,0,0,1,.571-1.381,1.542,1.542,0,0,1,1.139-.738.331.331,0,0,1,.307.235c.023.053.053.079.1.079.129,0,.2.049.2.151a1.311,1.311,0,0,1-.023.208,6.723,6.723,0,0,0-.132,1.014c0,.394.076.628.223.708a.165.165,0,0,1,.106.144.2.2,0,0,1-.106.151.325.325,0,0,1-.2.076c-.125,0-.227-.087-.31-.257a1.854,1.854,0,0,1-.121-.742ZM207.151,95q-.324,0-.749.6a1.889,1.889,0,0,0-.428,1c0,.185.061.28.185.28.178,0,.428-.182.742-.541a1.574,1.574,0,0,0,.477-1C207.378,95.111,207.3,95,207.151,95Z" transform="translate(-127.757 -58.798)" fill="#fff"/>
  <path id="Path_8695" data-name="Path 8695" d="M214.342,96.479c0-.106-.129-.227-.39-.36a3.818,3.818,0,0,1-.67-.4.445.445,0,0,1-.174-.341.948.948,0,0,1,.488-.806,1.594,1.594,0,0,1,.795-.318.48.48,0,0,1,.288.068.277.277,0,0,1,.091.235.165.165,0,0,1-.064.129.188.188,0,0,1-.1.053.293.293,0,0,1-.106-.038.37.37,0,0,0-.1-.034,1.617,1.617,0,0,0-.5.178c-.25.117-.375.254-.375.4a.319.319,0,0,0,.132.246,2.381,2.381,0,0,0,.473.272,1.8,1.8,0,0,1,.439.28.455.455,0,0,1,.163.352c0,.25-.17.443-.515.583a2.607,2.607,0,0,1-.984.212c-.265,0-.394-.091-.394-.269a.145.145,0,0,1,.091-.136.388.388,0,0,1,.178-.045.821.821,0,0,1,.14.023.774.774,0,0,0,.132.023,2.041,2.041,0,0,0,.579-.091.556.556,0,0,0,.382-.212Z" transform="translate(-132.288 -58.58)" fill="#fff"/>
  <path id="Path_8696" data-name="Path 8696" d="M225.794,96.487a4.3,4.3,0,0,1-.787.568,1.289,1.289,0,0,1-.522.178.421.421,0,0,1-.371-.2.84.84,0,0,1-.129-.469,3.566,3.566,0,0,1,.151-.927,3,3,0,0,1,.227-.655.274.274,0,0,1,.238-.1.132.132,0,0,1,.114.079.36.36,0,0,1,.045.182.337.337,0,0,1-.057.159,2.584,2.584,0,0,0-.136.254c0,.015-.034.114-.095.3a1.7,1.7,0,0,0-.087.507,1.33,1.33,0,0,0,.042.257c.026.117.083.174.167.174a.839.839,0,0,0,.329-.083,1.945,1.945,0,0,0,.443-.269,1.892,1.892,0,0,0,.333-.3.69.69,0,0,0,.121-.261,3.87,3.87,0,0,0,.049-.636c.011-.325.087-.488.238-.488a.182.182,0,0,1,.17.068.605.605,0,0,1,.038.265c0,.106-.008.242-.023.4-.019.2-.03.348-.034.435a8.7,8.7,0,0,1-.174,1.347,3.762,3.762,0,0,1-.409,1.132.821.821,0,0,1-.738.454,1.488,1.488,0,0,1-.848-.25c-.25-.167-.371-.307-.371-.424a.35.35,0,0,1,.038-.159c.027-.053.057-.079.1-.079.019,0,.042.015.064.045a1.113,1.113,0,0,0,1,.488c.235,0,.435-.208.594-.621a3.7,3.7,0,0,0,.265-1.166.931.931,0,0,1,.011-.2Z" transform="translate(-139.051 -58.891)" fill="#fff"/>
  <path id="Path_8697" data-name="Path 8697" d="M232.858,97.452a.7.7,0,0,1-.553-.254.938.938,0,0,1-.216-.628,2.153,2.153,0,0,1,.424-1.241,1.218,1.218,0,0,1,1.014-.609.771.771,0,0,1,.632.3,1.1,1.1,0,0,1,.242.715,1.709,1.709,0,0,1-.5,1.177A1.45,1.45,0,0,1,232.858,97.452Zm-.337-.942a.717.717,0,0,0,.1.4.307.307,0,0,0,.272.155,1.029,1.029,0,0,0,.73-.4,1.286,1.286,0,0,0,.367-.886.786.786,0,0,0-.14-.488.446.446,0,0,0-.375-.185.8.8,0,0,0-.674.481A1.785,1.785,0,0,0,232.521,96.51Z" transform="translate(-144.253 -58.872)" fill="#fff"/>
  <path id="Path_8698" data-name="Path 8698" d="M241.391,96.371a3.3,3.3,0,0,1-.64.81.954.954,0,0,1-.606.288.472.472,0,0,1-.329-.189.86.86,0,0,1-.167-.579,4.149,4.149,0,0,1,.155-.942,3.524,3.524,0,0,0,.129-.73.232.232,0,0,1,.223-.148.2.2,0,0,1,.163.072.228.228,0,0,1,.061.151,1.5,1.5,0,0,1-.121.484,3.107,3.107,0,0,0-.227,1.052c0,.265.061.4.185.4.159,0,.36-.132.6-.4a3.415,3.415,0,0,0,.628-1.12,1.7,1.7,0,0,1,.167-.375.208.208,0,0,1,.174-.087c.11,0,.167.072.167.22a1.121,1.121,0,0,1-.045.178,3.8,3.8,0,0,0-.148,1.01,1.017,1.017,0,0,0,.189.738c.064.061.1.11.1.148s-.034.087-.1.125a.36.36,0,0,1-.178.057c-.114,0-.2-.083-.276-.254a2.1,2.1,0,0,1-.106-.749v-.159Z" transform="translate(-148.952 -58.972)" fill="#fff"/>
  <rect id="Rectangle_6272" data-name="Rectangle 6272" width="68.675" height="0.117" transform="translate(37.683 32.359)" fill="#fff"/>
  <path id="Path_8699" data-name="Path 8699" d="M103.746,2.654l5.783-.114v.976l-2.244.5.272-.477v8.848a11.344,11.344,0,0,1-.136,1.726,6.34,6.34,0,0,1-.5,1.68,4.687,4.687,0,0,1-1.022,1.431,4.563,4.563,0,0,1-1.714,1,8.054,8.054,0,0,1-2.6.363,7.9,7.9,0,0,1-2.835-.431,4.234,4.234,0,0,1-1.726-1.147,4.281,4.281,0,0,1-.863-1.521,7.578,7.578,0,0,1-.318-1.555q-.068-.749-.068-1.294v-9.1l.272.477L93.83,3.63V2.654l5.783-.114v.976l-2.222.5.25-.477v9.1q0,.568.045,1.192a5.081,5.081,0,0,0,.238,1.215,2.833,2.833,0,0,0,.624,1.056,3.06,3.06,0,0,0,1.169.749,5.344,5.344,0,0,0,1.892.284,5.464,5.464,0,0,0,1.938-.3,3.043,3.043,0,0,0,1.2-.795,3.161,3.161,0,0,0,.647-1.124,5.256,5.256,0,0,0,.25-1.272q.045-.647.045-1.26V3.539l.227.454-2.176-.363V2.654h0Z" transform="translate(-58.319 -1.578)" fill="#fff"/>
  <path id="Path_8700" data-name="Path 8700" d="M150.035,2.654l5.51-.114v.976l-2.267.522.3-.431V18.375h-2.085L142.776,4.516l.273-.023V17.33l-.341-.409L145,17.4v.976H139.51V17.4l2.29-.477-.341.409V3.607l.25.409-2.2-.386V2.654l4.174-.114,8.6,13.632-.272.023V3.607l.318.409-2.29-.386V2.654h0Z" transform="translate(-86.711 -1.578)" fill="#fff"/>
  <path id="Path_8701" data-name="Path 8701" d="M192.773,3.516l-2.222.5.25-.318V17.262l-.25-.318,2.222.454v.976H186.99V17.4l2.2-.454-.25.318V3.7l.3.341L186.99,3.63V2.654l5.783-.114Z" transform="translate(-116.222 -1.578)" fill="#fff"/>
  <path id="Path_8702" data-name="Path 8702" d="M215.355,18.243a6.146,6.146,0,0,1-3.312-.931,6.393,6.393,0,0,1-2.369-2.721,9.982,9.982,0,0,1-.874-4.4,9.963,9.963,0,0,1,.886-4.4,6.537,6.537,0,0,1,2.471-2.812,6.915,6.915,0,0,1,3.7-.976,10.822,10.822,0,0,1,2.358.272,13.165,13.165,0,0,1,2.539.863L220.593,6.7H219.48l-.409-2.812.341.363a9.885,9.885,0,0,0-1.824-.579,8.376,8.376,0,0,0-1.714-.193,4.628,4.628,0,0,0-2.7.783,5.07,5.07,0,0,0-1.76,2.233,8.749,8.749,0,0,0-.624,3.47,9.117,9.117,0,0,0,.659,3.675,5.182,5.182,0,0,0,1.805,2.278,4.461,4.461,0,0,0,2.574.783,5.915,5.915,0,0,0,2.188-.454,7.619,7.619,0,0,0,2.21-1.385l.749,1.113a9.384,9.384,0,0,1-2.789,1.711A7.768,7.768,0,0,1,215.355,18.243Z" transform="translate(-129.778 -1.244)" fill="#fff"/>
  <path id="Path_8703" data-name="Path 8703" d="M252.69,18.243a6.95,6.95,0,0,1-3.5-.886,6.127,6.127,0,0,1-2.449-2.664,9.75,9.75,0,0,1-.9-4.413,10.721,10.721,0,0,1,.556-3.618,7.2,7.2,0,0,1,1.555-2.6,6.393,6.393,0,0,1,2.3-1.555,7.607,7.607,0,0,1,2.8-.511,7.4,7.4,0,0,1,2.721.488A6.051,6.051,0,0,1,258,3.964a6.852,6.852,0,0,1,1.487,2.46,10.046,10.046,0,0,1,.534,3.425,9.831,9.831,0,0,1-.965,4.549,6.934,6.934,0,0,1-2.619,2.857A7.155,7.155,0,0,1,252.69,18.243Zm.114-1.476a4.938,4.938,0,0,0,2.6-.715,5,5,0,0,0,1.907-2.21,9.035,9.035,0,0,0,.715-3.879,8.52,8.52,0,0,0-.67-3.7,4.646,4.646,0,0,0-1.813-2.108,4.946,4.946,0,0,0-2.574-.681,4.695,4.695,0,0,0-4.42,2.869,9.083,9.083,0,0,0-.7,3.868,8.677,8.677,0,0,0,.67,3.72,4.755,4.755,0,0,0,1.79,2.142A4.652,4.652,0,0,0,252.8,16.767Z" transform="translate(-152.8 -1.243)" fill="#fff"/>
  <path id="Path_8704" data-name="Path 8704" d="M98.23,62.224v-.575l1.325-.28-.174.242v-8.1l.216.254-1.362-.242v-.575l3.41-.068v.575l-1.351.307.185-.254v3.747l-.2-.2h5.245l-.2.2V53.512l.2.254-1.351-.242v-.575l3.41-.068v.575l-1.336.307.174-.254v8.1l-.174-.242,1.336.28v.575h-3.41v-.575l1.325-.28-.174.242V57.69l.2.189h-5.245l.2-.189v3.921l-.174-.242,1.336.28v.575H98.23Z" transform="translate(-61.054 -32.867)" fill="#fff"/>
  <path id="Path_8705" data-name="Path 8705" d="M130.792,62.153a4.09,4.09,0,0,1-2.066-.522,3.629,3.629,0,0,1-1.446-1.571,5.759,5.759,0,0,1-.53-2.6,6.323,6.323,0,0,1,.329-2.135A4.286,4.286,0,0,1,128,53.789a3.769,3.769,0,0,1,1.359-.916,4.506,4.506,0,0,1,1.654-.3,4.336,4.336,0,0,1,1.6.288,3.58,3.58,0,0,1,1.309.87,4,4,0,0,1,.874,1.453,5.965,5.965,0,0,1,.314,2.021,5.82,5.82,0,0,1-.568,2.683A4.069,4.069,0,0,1,133,61.57,4.207,4.207,0,0,1,130.792,62.153Zm.068-.87a2.837,2.837,0,0,0,2.657-1.726,5.35,5.35,0,0,0,.42-2.286,5.057,5.057,0,0,0-.394-2.18,2.756,2.756,0,0,0-1.071-1.245,2.907,2.907,0,0,0-1.518-.4,2.776,2.776,0,0,0-2.611,1.692,5.358,5.358,0,0,0-.416,2.282,5.155,5.155,0,0,0,.394,2.2,2.658,2.658,0,0,0,2.539,1.669Z" transform="translate(-78.78 -32.675)" fill="#fff"/>
  <path id="Path_8706" data-name="Path 8706" d="M154.276,54.982a1.227,1.227,0,0,0,.269.829,2.008,2.008,0,0,0,.715.53,7.107,7.107,0,0,0,.984.367c.356.106.715.227,1.071.356a4.883,4.883,0,0,1,.976.481,2.121,2.121,0,0,1,.988,1.907,2.4,2.4,0,0,1-.477,1.537,2.8,2.8,0,0,1-1.264.889,4.974,4.974,0,0,1-1.726.288,6.835,6.835,0,0,1-1.366-.14,7.389,7.389,0,0,1-1.366-.42l.079-2.2h.655l.227,1.711-.132-.227a4.545,4.545,0,0,0,.976.322,4.781,4.781,0,0,0,.992.106,3.291,3.291,0,0,0,1.151-.193,1.987,1.987,0,0,0,.844-.575,1.423,1.423,0,0,0,.322-.958,1.309,1.309,0,0,0-.273-.863,2.1,2.1,0,0,0-.715-.541,6.4,6.4,0,0,0-.976-.375c-.356-.106-.715-.22-1.071-.341a4.641,4.641,0,0,1-.976-.462,2.2,2.2,0,0,1-.715-.73,2.175,2.175,0,0,1-.272-1.143,2.325,2.325,0,0,1,.42-1.423,2.511,2.511,0,0,1,1.151-.848,4.531,4.531,0,0,1,1.627-.28,6.954,6.954,0,0,1,1.309.132,6.682,6.682,0,0,1,1.34.416l-.106,2.1h-.67l-.2-1.6.159.159a4.331,4.331,0,0,0-.87-.269,4.9,4.9,0,0,0-.935-.095,3.5,3.5,0,0,0-1.045.155,1.711,1.711,0,0,0-.795.5,1.285,1.285,0,0,0-.3.9Z" transform="translate(-95.145 -32.687)" fill="#fff"/>
  <path id="Path_8707" data-name="Path 8707" d="M176.351,58.658h-1.245l.242-.2v3.156l-.185-.227,1.658.269v.575H173.1v-.575l1.351-.28-.2.242v-8.1l.227.254-1.378-.242v-.575l2.275-.068h1.51a3.688,3.688,0,0,1,1.7.348,2.313,2.313,0,0,1,1,.965,2.937,2.937,0,0,1,.333,1.431,3.04,3.04,0,0,1-.4,1.578,2.7,2.7,0,0,1-1.2,1.063A4.5,4.5,0,0,1,176.351,58.658Zm.375-4.95h-1.578l.2-.2v4.534l-.242-.2h1.245a2.585,2.585,0,0,0,1.813-.587,2.067,2.067,0,0,0,.636-1.593,1.922,1.922,0,0,0-.53-1.431,2.106,2.106,0,0,0-1.544-.522Z" transform="translate(-107.588 -32.874)" fill="#fff"/>
  <path id="Path_8708" data-name="Path 8708" d="M196.7,53.469l-1.309.3.148-.189v8l-.148-.185,1.309.269v.575h-3.41v-.575l1.3-.269-.148.185v-8l.174.2-1.325-.242v-.575l3.41-.068Z" transform="translate(-120.137 -32.874)" fill="#fff"/>
  <path id="Path_8709" data-name="Path 8709" d="M205.843,62.237v-.575l1.552-.28-.216.3V53.513l.242.2H204.84l.269-.227-.269,1.7h-.67V52.9h7.1v2.286h-.67l-.269-1.673.269.2h-2.581l.242-.2v8.16l-.2-.3,1.54.28v.575h-3.762Z" transform="translate(-126.9 -32.88)" fill="#fff"/>
  <path id="Path_8710" data-name="Path 8710" d="M229.559,61.594l-.307-.269,1.256.28v.575h-3.478v-.575l1.393-.269-.106.185-.708-2.142.2.159h-4.095l.189-.159-.761,2.112-.068-.148,1.366.254v.575H221.15V61.6l1.23-.28-.28.242,3.262-8.708,1.109-.042Zm-5.51-2.676-.106-.174H227.6l-.121.189-1.752-5.446.254.015Z" transform="translate(-137.454 -32.824)" fill="#fff"/>
  <path id="Path_8711" data-name="Path 8711" d="M252.451,59.85h.67V62.23H246.74v-.575l1.309-.269-.159.227v-8.08l.159.242-1.309-.242v-.575l3.558-.068v.575l-1.457.307.148-.242v8.08l-.2-.2h3.6l-.185.2.25-1.76Z" transform="translate(-153.359 -32.874)" fill="#fff"/>
  <path id="Path_8712" data-name="Path 8712" d="M266.728,54.982a1.247,1.247,0,0,0,.269.829,2.008,2.008,0,0,0,.715.53,7.106,7.106,0,0,0,.984.367c.356.106.711.227,1.071.356a4.884,4.884,0,0,1,.976.481,2.134,2.134,0,0,1,.992,1.907,2.416,2.416,0,0,1-.473,1.537,2.8,2.8,0,0,1-1.264.889,4.974,4.974,0,0,1-1.726.288,6.834,6.834,0,0,1-1.366-.14,7.389,7.389,0,0,1-1.366-.42l.079-2.2h.655l.227,1.711-.132-.227a4.614,4.614,0,0,0,.976.322,4.781,4.781,0,0,0,.992.106,3.291,3.291,0,0,0,1.151-.193,1.987,1.987,0,0,0,.844-.575,1.423,1.423,0,0,0,.322-.958,1.309,1.309,0,0,0-.272-.863,2.1,2.1,0,0,0-.715-.541,6.4,6.4,0,0,0-.976-.375c-.356-.106-.715-.22-1.071-.341a4.641,4.641,0,0,1-.976-.462,2.2,2.2,0,0,1-.715-.73,2.175,2.175,0,0,1-.272-1.143,2.325,2.325,0,0,1,.42-1.423,2.512,2.512,0,0,1,1.151-.848,4.525,4.525,0,0,1,1.624-.28,6.954,6.954,0,0,1,1.31.132,6.573,6.573,0,0,1,1.336.416l-.106,2.1h-.67l-.2-1.6.159.159a4.331,4.331,0,0,0-.87-.269,4.9,4.9,0,0,0-.935-.095,3.5,3.5,0,0,0-1.045.155,1.711,1.711,0,0,0-.795.5,1.3,1.3,0,0,0-.3.9Z" transform="translate(-165.044 -32.687)" fill="#fff"/>
</svg>
